<?xml version="1.0" encoding="utf-8"?>
<!DOCTYPE svg PUBLIC "-//W3C//DTD SVG 20010904//EN" "http://www.w3.org/TR/2001/REC-SVG-20010904/DTD/svg10.dtd">
<svg version="1.0" xmlns="http://www.w3.org/2000/svg" width="360px" height="360px" viewBox="0 0 360 360" preserveAspectRatio="xMidYMid meet">
 <g fill="#000000">
  <path d="M122 287.4 c-31.1 -17.9 -58.2 -33.6 -60.3 -35 l-3.7 -2.4 0 -69.8 c0 -38.3 0.4 -70.2 0.8 -70.8 0.7 -1.1 24.9 -15.2 90 -52.4 27.5 -15.8 30.6 -17.3 33 -16.4 4.1 1.6 118.6 67.5 119.4 68.8 0.4 0.6 0.8 32.5 0.8 70.8 l0 69.8 -3.7 2.4 c-9.7 6.3 -116.9 67.6 -118.3 67.6 -0.9 0 -27 -14.7 -58 -32.6z m50.7 -16.1 c-0.4 -0.3 -69 -10.2 -69.4 -9.9 0 0 15.5 9.1 34.5 20.1 l34.7 20 0.3 -14.9 c0.1 -8.2 0.1 -15 -0.1 -15.3z m79.3 -7.1 c3.3 -1.9 4.5 -3 3 -2.7 -1.4 0.3 -15.8 2.3 -32 4.5 -16.2 2.2 -31 4.3 -32.7 4.6 l-3.3 0.6 0 15.3 0 15.3 29.8 -17.2 c16.3 -9.5 32.2 -18.6 35.2 -20.4z m-88 -10.6 c0 -0.3 -11.6 -20.8 -46.9 -83.1 -5.6 -9.9 -10.6 -18.4 -11 -18.8 -0.4 -0.4 -7.9 19.5 -16.6 44.3 -8.7 24.8 -15.6 45.2 -15.4 45.4 0.2 0.1 15.9 2.4 34.9 5.1 19 2.6 38.3 5.3 43 6 9.8 1.4 12 1.6 12 1.1z m64.1 -4 c17.3 -2.4 37.3 -5.2 44.4 -6.1 7.2 -1 13.2 -1.9 13.4 -2.1 0.2 -0.2 -6.7 -20.6 -15.4 -45.4 -8.7 -24.8 -16.2 -44.7 -16.6 -44.3 -0.9 0.9 -57.9 101.2 -57.9 101.9 0 0.6 -2.8 0.9 32.1 -4z m-38.1 -20.4 c5.2 -9.2 19 -33.5 30.6 -53.9 l21.2 -37.3 -61.8 0 -61.8 0 30.6 54 c16.9 29.7 30.9 54 31.2 54 0.3 0 4.8 -7.5 10 -16.8z m-108.1 -61.2 c6.1 -17.3 11.1 -32 11.1 -32.5 0 -0.6 -5.2 -3.4 -11.5 -6.2 l-11.5 -5.1 0 38.1 c0 20.9 0.2 37.8 0.4 37.6 0.3 -0.2 5.4 -14.6 11.5 -31.9z m208.1 -5.9 l0 -37.9 -11.5 5.1 c-6.3 2.8 -11.5 5.6 -11.5 6.1 0 1.3 22.2 64.6 22.7 64.6 0.1 0 0.3 -17.1 0.3 -37.9z m-65.7 -54.7 l-13.8 -15.6 -0.6 3.2 c-1.3 6.3 -8.5 11.1 -25.5 17 -7.3 2.5 -10.2 3 -18.1 3 -8.6 0 -9.6 -0.2 -11.8 -2.5 -2.2 -2.1 -2.5 -3.3 -2.5 -9.4 0 -3.8 0.5 -8.2 1.1 -9.8 2.6 -7.1 14.7 -14.9 24.6 -15.9 7.8 -0.8 17.3 0.3 17.3 2.1 0 1.1 5 2.9 5.8 2 0.4 -0.4 -20 -23.5 -20.8 -23.5 -0.5 0 -12.6 13.5 -54.3 60.7 l-3.9 4.3 58.2 0 58.1 0 -13.8 -15.6z m-104.6 -7.9 c8.7 -9.9 16.3 -18.6 16.7 -19.4 0.5 -0.8 -1.8 0.1 -5.1 2 -34.1 19.5 -49.2 28.4 -48.5 29.1 0.4 0.4 4.8 2.5 9.7 4.7 6.9 3.1 9.3 3.7 10.1 2.8 0.6 -0.7 8.3 -9.3 17.1 -19.2z m150.2 15.3 c4.6 -2.1 8.2 -4 8 -4.2 -0.2 -0.2 -12.3 -7.3 -26.9 -15.6 -14.6 -8.4 -26.9 -15.5 -27.4 -15.8 -2.1 -1.2 1.9 3.6 17.8 21.5 11.9 13.4 17.5 18.9 18.5 18.5 0.9 -0.3 5.4 -2.3 10 -4.4z m-88.4 -12.2 c3.3 -1.5 5.5 -3.1 5.5 -4 0 -0.9 -0.6 -1.6 -1.4 -1.6 -0.8 0 -1.6 -0.5 -1.8 -1.2 -0.6 -1.6 -5 1.5 -8.3 5.8 -3.2 4.2 -1.9 4.4 6 1z"/>
  <path d="M116 240 c-1.5 -1.5 -2 -3.3 -2 -7.5 0 -4.9 -0.2 -5.5 -2.3 -6 -1.3 -0.4 -3.1 -1.9 -4.1 -3.5 -0.9 -1.6 -3.7 -4.6 -6.3 -6.7 -5.7 -4.7 -7.3 -8.4 -7.3 -16.7 0 -5.9 0.3 -6.7 3.3 -9.9 2.8 -3.1 4 -3.6 9.8 -4.2 9.9 -1.1 14.9 2.1 16.8 10.5 0.6 2.5 1.5 6.8 2.1 9.5 0.7 2.8 1.5 7.2 1.8 9.9 0.6 4.5 1 5 4.1 6.1 1.8 0.6 3.9 1.9 4.7 3 2.8 3.8 1.1 11.8 -2.8 13.1 -1.3 0.3 -3.4 1.5 -4.7 2.5 -3.3 2.6 -10.5 2.5 -13.1 -0.1z m0.6 -30.4 l-1 -6.5 -4.8 0.6 -4.8 0.6 0 -3.9 c0 -3.5 -0.1 -3.6 -1.4 -1.9 -0.8 1.1 -1.1 2.6 -0.8 3.5 0.5 1.4 12.1 13.6 13.2 13.9 0.3 0 0.1 -2.8 -0.4 -6.3z"/>
  <path d="M247 239 c-1.5 -0.8 -8.7 -1.1 -18.5 -0.7 l-5 0.2 -0.3 -3.9 c-0.3 -3.9 0.2 -5.8 4.3 -15.1 1.2 -2.7 2.6 -6.1 3 -7.5 0.4 -1.4 1.1 -2.9 1.5 -3.5 1.5 -1.9 6 -14.2 6 -16.2 0 -2.5 1.8 -3.3 7.7 -3.3 12.7 0 29 16.2 28.1 28 -0.3 4.2 -0.4 4.4 -5.3 6 -11.8 4.1 -11 3.4 -10.7 9 0.3 3 -0.1 5.7 -0.8 6.5 -1.4 1.6 -7.6 2 -10 0.5z"/>
  <path d="M167 190.5 c-3.6 -0.8 -7.6 -2.3 -9 -3.3 -2.5 -1.9 -2.5 -2.2 -2.8 -17.7 l-0.2 -15.7 3.8 -3.8 c2 -2.1 5.5 -4.3 7.7 -4.9 10.7 -3.1 29.7 -2.1 36.4 2 5.9 3.6 6.4 5.5 6.4 22.7 -0.1 15.1 -0.2 15.6 -2.5 17.3 -5.3 4.1 -28.1 6 -39.8 3.4z m28.5 -29.1 c2.7 -1.3 3.3 -2 2.5 -2.9 -1.6 -2 -7.3 -4.4 -12.3 -5.4 l-4.4 -0.8 0.5 4.4 c0.4 3.5 0.2 4.3 -1.2 4.3 -0.9 0 -1.6 0.7 -1.6 1.6 0 1.5 0.9 1.6 6.5 1.1 3.6 -0.4 8.1 -1.4 10 -2.3z"/>
 </g>
 <g fill="#ffffff">
  <path d="M129.5 281.5 c-24.1 -14 -43 -25.5 -41.9 -25.5 1.8 0 25.8 3.3 73.4 10 7.9 1.1 14.6 2 14.7 2 0.2 0 0.3 8.8 0.3 19.5 0 15 -0.3 19.5 -1.2 19.5 -0.7 -0.1 -21.1 -11.5 -45.3 -25.5z"/>
  <path d="M184 287.6 l0 -19.4 3.3 -0.6 c1.7 -0.3 14.9 -2.1 29.2 -4.1 14.3 -2 32.2 -4.5 39.8 -5.5 7.6 -1.1 14.8 -2 16 -2 1.3 0 -2.2 2.5 -8.8 6.3 -6.1 3.5 -25.9 15 -44.2 25.5 -18.2 10.6 -33.6 19.2 -34.2 19.2 -0.8 0 -1.1 -6 -1.1 -19.4z"/>
  <path d="M153 256 c-6.3 -0.9 -27.4 -3.9 -46.8 -6.5 -19.4 -2.7 -35.8 -5.2 -36.3 -5.6 -0.7 -0.4 2.6 -11.1 9.1 -29.5 5.6 -15.9 13.6 -38.7 17.8 -50.6 4.2 -12 7.9 -21.8 8.2 -21.8 0.4 0 5.3 8.2 11 18.3 38.6 68 55 97 55 97.3 0 0.7 -6.5 0.2 -18 -1.6z m-26.9 -18.8 c1.3 -1 3.6 -2.3 5 -2.9 5.2 -2.2 3.8 -8.5 -2.1 -9.8 -3.7 -0.8 -4.4 -1.9 -4.6 -7 -0.1 -2.2 -0.7 -6.2 -1.3 -9 -0.7 -2.7 -1.6 -7 -2.2 -9.5 -1.8 -7.8 -6.7 -11.3 -13.9 -10 -3.3 0.6 -5.2 1.7 -7.2 4.1 -5 6 -3.2 13.8 4.5 20.2 2.6 2.1 5.4 5 6.2 6.5 0.9 1.5 3.1 3.4 4.8 4.2 3.3 1.5 3.5 2.5 2.2 8.2 -0.5 1.9 -0.1 3.2 1.4 4.7 2.6 2.6 4.1 2.6 7.2 0.3z"/>
  <path d="M120.3 234.5 c-0.3 -0.9 0.2 -2.4 1.2 -3.4 1.5 -1.8 1.5 -2.2 0 -5 -1.9 -3.7 -0.4 -4.1 1.9 -0.5 1.3 1.9 2.4 2.4 4.4 2.2 2.2 -0.2 2.8 0.2 3 2 0.3 1.8 -0.1 2.2 -2.6 2.2 -2.1 0 -3.1 0.6 -3.5 2 -0.6 2.4 -3.5 2.7 -4.4 0.5z"/>
  <path d="M108.2 213.5 c-7.9 -7.9 -9.7 -12.3 -7.2 -17 1.8 -3.3 6.9 -5.6 10.5 -4.7 4.2 1.2 6.3 4.7 7.9 13.2 0.8 4.1 1.8 8.8 2.2 10.3 0.7 3 -1.5 5.7 -4.6 5.6 -0.8 0 -4.8 -3.4 -8.8 -7.4z"/>
  <path d="M189.2 257.1 c1 -2.6 65.2 -115.1 65.7 -115.1 0.4 0 4.1 9.8 8.3 21.8 4.2 11.9 12.2 34.7 17.8 50.6 6.7 19 9.8 29.1 9.1 29.5 -0.6 0.4 -7.1 1.5 -14.3 2.5 -7.3 1 -29 4 -48.3 6.7 -37.1 5.2 -38.9 5.4 -38.3 4z m64.9 -21.7 c1 -1.2 1 -2.2 0.1 -4.8 -0.7 -1.8 -1.2 -3.8 -1.2 -4.4 0 -1.3 8.9 -5.6 14 -6.7 4.2 -0.9 4.6 -2.6 1.9 -8.1 -3 -6.3 -7.3 -11 -13.5 -15 -8.2 -5.2 -14.4 -5.7 -14.4 -1.2 0 2.1 -4.5 14.4 -6 16.3 -0.4 0.6 -1.1 2.1 -1.5 3.5 -0.4 1.4 -1.8 4.8 -3 7.5 -5.8 13.2 -5.7 14.6 1.3 11.8 3.6 -1.4 4.6 -1.4 6.7 -0.3 3.2 1.7 5.5 0.7 5.5 -2.5 0 -3.5 1.6 -3.1 3.6 0.8 2.5 4.8 4.3 5.7 6.5 3.1z"/>
  <path d="M249 230 c-1.1 -2.2 -2.4 -4 -2.9 -4 -2.7 0 -4.1 1.5 -4.1 4.1 0 3.1 -1.4 3.9 -2.4 1.4 -0.7 -1.9 -3.9 -1.9 -7.8 0.1 -1.6 0.9 -2.9 1.2 -2.7 0.7 0.2 -0.5 3.1 -7.4 6.4 -15.2 5.1 -12.3 6.1 -14 6.9 -12.1 0.8 1.7 0.6 2.5 -0.7 3.5 -2 1.5 -2.2 3.5 -0.4 3.5 2 0 4.7 -3.3 4.7 -5.8 0 -1.1 -0.9 -2.7 -2 -3.5 -2.6 -1.8 -1.5 -2.8 1.7 -1.6 5.4 2 6.2 -0.4 0.8 -2.7 -3.5 -1.4 -4.4 -2.8 -2.5 -3.9 1.8 -1.1 11.7 4.5 16.1 9 6.5 6.7 10 13.5 6.9 13.5 -0.4 0 -2.1 -2.2 -3.9 -4.9 -3.1 -4.9 -8.4 -10.1 -10.2 -10.1 -1.8 0 -0.8 2.1 2.4 4.9 1.7 1.6 4.2 4.7 5.5 7 l2.3 4.1 -2.3 0.9 c-11.2 4.4 -12 5.4 -9.4 10.7 1.9 4 1.9 4.4 0.6 4.4 -0.5 0 -1.9 -1.8 -3 -4z m-11 -4.5 c0 -0.8 -0.7 -1.5 -1.5 -1.5 -0.8 0 -1.5 0.7 -1.5 1.5 0 0.8 0.7 1.5 1.5 1.5 0.8 0 1.5 -0.7 1.5 -1.5z m7.8 -1.7 c0.7 -0.7 1.2 -2.4 1.2 -3.8 0 -5.3 -5.7 -6.9 -8.6 -2.5 -1.5 2.3 -1.5 2.7 0 5 1.8 2.7 5.4 3.3 7.4 1.3z m10 -7 c2 -2 1.4 -5.6 -1.3 -7.4 -2.3 -1.5 -2.7 -1.5 -5 0 -2.7 1.8 -3.1 3.6 -1.5 6.7 1.2 2.2 5.9 2.6 7.8 0.7z m4 0.1 c-0.2 -0.6 -0.8 -1 -1.3 -1 -0.5 0 -1.1 0.4 -1.3 1 -0.2 0.6 0.4 1.1 1.3 1.1 0.9 0 1.5 -0.5 1.3 -1.1z"/>
  <path d="M240.6 220.5 c-0.6 -1.7 1.6 -3.1 3.3 -2.1 1.3 0.9 0.2 3.6 -1.4 3.6 -0.7 0 -1.6 -0.7 -1.9 -1.5z"/>
  <path d="M250.7 215.4 c-1.5 -1.5 -0.7 -4.5 1.1 -4.2 0.9 0.2 1.7 1.2 1.7 2.2 0 2 -1.6 3.1 -2.8 2z"/>
  <path d="M145.5 194.5 c-18.5 -32.8 -33.6 -59.7 -33.4 -59.8 0.2 -0.1 30.9 0 68.1 0.3 l67.8 0.5 -5.2 9 c-2.8 5 -17.9 31.5 -33.5 59 -15.6 27.5 -28.7 50.1 -29.2 50.3 -0.4 0.1 -16 -26.5 -34.6 -59.3z m47.6 -6.9 c10.2 -1.8 12.9 -3.7 12.9 -8.7 0 -4.7 -1.6 -5.7 -6.1 -3.9 -4.7 2 -4.5 0.4 0.3 -1.8 5.4 -2.4 7.6 -4.8 5.9 -6.5 -1 -0.9 -1.4 -0.8 -2.2 0.5 -0.5 0.9 -2.6 2.2 -4.7 2.9 -4.6 1.4 -6.8 3.3 -7.6 6.5 -0.8 3.1 -2 3.1 -3.4 -0.1 -1.2 -2.6 -2.5 -3.1 -10.8 -3.9 -5.7 -0.5 -15.1 -3.3 -16 -4.7 -0.8 -1.4 -3.4 -1.1 -3.4 0.4 0 2.3 7.1 5.4 15 6.7 4.1 0.6 8.4 1.3 9.5 1.6 1.1 0.2 2.8 1.7 3.7 3.4 1.9 3.4 5 3.9 7 1.2 0.7 -1.1 3.2 -2.2 5.6 -2.6 3.8 -0.6 4.3 -0.4 4 1.1 -0.2 1 -2.3 2.5 -5.3 3.6 -11.6 4.3 -34.6 2.3 -35.3 -3.1 -0.3 -1.9 0 -2.3 1.5 -1.9 9.3 2.8 20.4 3.9 21 2.1 0.2 -0.5 -3.4 -1.5 -7.9 -2.2 -4.6 -0.6 -9.8 -1.7 -11.6 -2.4 -4.1 -1.6 -6.7 -0.2 -6.7 3.7 0 3.8 3.5 6.2 11.5 7.9 8.3 1.8 13.6 1.9 23.1 0.2z m8 -20.7 c3.9 -2.2 4.4 -2.8 4.7 -6.5 0.5 -7.3 -4.3 -11.3 -16.6 -13.4 -7.9 -1.4 -17.7 -0.4 -23.2 2.5 -4.1 2.1 -8 7.3 -8 10.5 0 3.2 4.5 7.6 8.8 8.6 1.5 0.3 3.2 0.8 3.7 1 0.6 0.2 6.7 0.2 13.6 0.1 11.1 -0.3 13.1 -0.6 17 -2.8z"/>
  <path d="M170.3 166.1 c-8.8 -2.3 -10.7 -7 -4.8 -11.8 8.3 -6.9 26.9 -6.4 34.7 0.9 6.9 6.4 0.5 11 -16.1 11.4 -5.8 0.2 -12.1 -0.1 -13.8 -0.5z"/>
  <path d="M67 169.6 c0 -47.7 0.1 -50.8 1.7 -50.2 7.3 2.8 29.3 13 29.3 13.6 0 1 -30 86.4 -30.6 86.9 -0.2 0.2 -0.4 -22.4 -0.4 -50.3z"/>
  <path d="M277.1 176.7 c-8.5 -24.1 -15.2 -44 -14.9 -44.2 0.9 -0.9 30.1 -13.6 30.4 -13.2 0.2 0.2 0.3 23.1 0.2 50.8 l-0.3 50.4 -15.4 -43.8z"/>
  <path d="M115.7 123.8 c1.1 -1.3 15.8 -17.9 32.7 -37 16.9 -19.2 31.1 -34.8 31.6 -34.8 0.5 0 14.7 15.6 31.6 34.8 16.9 19.1 31.6 35.7 32.7 37 l2 2.2 -66.3 0 -66.3 0 2 -2.2z m65.7 -14.8 c16.4 -5.7 25.6 -11.8 25.6 -17 0 -2.4 -5.5 -7 -8.3 -7 -1.2 0 -6.2 -0.2 -11 -0.4 -7 -0.4 -8.9 -0.2 -9.4 1 -0.3 0.8 -1.5 1.4 -2.7 1.4 -2.6 0 -3 0.3 -8.9 6.8 -2.6 2.9 -4.5 5.7 -4.2 6.2 0.8 1.4 2.5 1.3 2.5 -0.1 0 -0.6 1.8 -2.9 4 -5 2.2 -2.2 4 -4.3 4 -4.9 0 -0.5 1 -1 2.2 -1 1.2 0 2.9 -0.7 3.9 -1.6 1 -0.9 2.4 -1.4 3.1 -1.2 0.7 0.3 -0.8 1.8 -3.6 3.4 -5.8 3.5 -7.6 5.3 -12.2 12.1 -3.9 5.9 -4 6.3 -1.6 6.3 1 0 2.6 -1.5 3.6 -3.2 4 -6.8 7.7 -10.5 13.7 -13.7 8.3 -4.4 15.4 -5.1 19.2 -2.1 1.5 1.2 2.7 2.6 2.7 3.2 0 2.5 -5.2 7.3 -10 9.4 -0.8 0.3 -4 1.6 -7 2.9 -10.1 4.3 -14.5 5.5 -20.7 5.5 -6 0 -6.3 -0.1 -7.8 -3.1 -3.7 -7.1 1.2 -15.3 12.8 -21.4 4.3 -2.2 6.5 -2.7 12.9 -2.7 8.6 0 10.3 -1.2 3.2 -2.3 -6.5 -0.9 -12 0.2 -18.9 4 -9.9 5.5 -13.5 10.5 -13.5 18.6 0 9.5 9.8 11.6 26.4 5.9z"/>
  <path d="M87.7 118.2 c-11.4 -5.1 -14.4 -6.9 -13.5 -7.7 3.1 -2.8 84.1 -48.4 82.2 -46.3 -1.1 1.2 -12.4 14 -25 28.2 -12.6 14.3 -24.2 27.4 -25.9 29.2 l-3 3.2 -14.8 -6.6z"/>
  <path d="M251.3 118.1 c-3.3 -3.6 -14.9 -16.7 -25.8 -29.1 -10.9 -12.4 -20.8 -23.6 -21.9 -24.8 -1.6 -1.8 68.5 37.5 81.4 45.6 l2.5 1.5 -6.5 3 c-3.6 1.6 -10.4 4.6 -15.2 6.7 l-8.6 3.8 -5.9 -6.7z"/>
 </g>
</svg>